<svg xmlns="http://www.w3.org/2000/svg" width="336" height="56" viewBox="0 0 336 56">
    <g fill="none" fill-rule="evenodd">
        <path fill="#4FBDF4" d="M28 0c15.464 0 28 12.536 28 28S43.464 56 28 56 0 43.464 0 28 12.536 0 28 0zm0 11c-9.389 0-17 7.611-17 17s7.611 17 17 17 17-7.611 17-17-7.611-17-17-17z"/>
        <g fill="#000" fill-rule="nonzero">
            <path d="M211.018 16.071c3.536-.482 6.482-3.535 6.482-7.553 0-4.929-3.59-8.464-9.321-8.464-5.036 0-8.84 3.321-9.75 8.41h1.607c.964-4.285 4.071-6.857 8.143-6.857 4.5 0 7.66 2.84 7.66 6.91 0 4.233-3.268 6.804-7.285 6.804h-2.625v1.5h2.625c4.232 0 7.982 2.625 7.982 7.179s-3.215 7.554-8.143 7.554c-4.607 0-7.768-2.572-8.732-7.179H198c.857 5.41 4.66 8.732 10.393 8.732 6.214 0 9.803-4.125 9.803-9.053 0-4.929-3.482-7.608-7.178-7.983zM231.268 11.464c-2.197 0-4.34.857-5.732 1.929L233.089.214h-1.66l-8.679 15.161c-1.5 2.84-1.982 4.66-1.982 6.75 0 6.054 4.714 10.714 10.5 10.714 5.893 0 10.553-4.66 10.553-10.714 0-6-4.66-10.66-10.553-10.66zm0 19.929c-4.929 0-8.893-3.964-8.893-9.16 0-5.197 3.964-9.215 8.893-9.215 4.982 0 8.946 4.018 8.946 9.214 0 5.197-3.964 9.16-8.946 9.16zM256.286.054c-7.018 0-11.679 6.696-11.679 16.5 0 9.803 4.66 16.5 11.679 16.5 7.018 0 11.678-6.697 11.678-16.5 0-9.804-4.66-16.5-11.678-16.5zm0 31.553c-6.107 0-10.072-6.16-10.072-15s3.965-15 10.072-15c6.107 0 10.071 6.16 10.071 15s-4.018 15-10.071 15zM33.054 12.107l-.483.59V9.75h-4.928v22.821h4.928V20.68c0-4.5 2.572-7.018 7.233-7.072V9.43c-3.054 0-5.25.91-6.75 2.678zM114.696 2.357H119.625V32.518H114.696zM12.214 9.107c-6.857 0-12 5.143-12 12s5.143 12 12 12c4.5 0 7.179-3.16 7.179-3.16v2.517h4.928v-11.41c0-6.804-5.196-11.947-12.107-11.947zm0 19.66c-4.018 0-7.071-3.32-7.071-7.66 0-4.393 3.053-7.714 7.071-7.714 4.072 0 7.179 3.321 7.179 7.714 0 4.393-3.107 7.66-7.179 7.66zM56.518 9.696H61.447V32.517H56.518zM59.09.054c-1.822 0-3.269 1.5-3.269 3.321 0 1.821 1.447 3.268 3.268 3.268 1.822 0 3.322-1.447 3.322-3.268 0-1.821-1.5-3.321-3.322-3.321zM76.071 13.393c2.893 0 5.304 1.607 6.483 4.286h5.142c-1.446-5.197-6-8.572-11.625-8.572-6.857 0-12 5.143-12 12s5.143 12 12 12c5.465 0 9.965-3.214 11.518-8.143h-5.25c-1.232 2.411-3.589 3.857-6.268 3.857-4.017 0-7.071-3.321-7.071-7.66-.054-4.447 3-7.768 7.071-7.768zM173.732 9.107c-6.857 0-12 5.143-12 12s5.143 12 12 12c5.036 0 9.268-2.678 11.09-7.071h-5.518c-1.34 1.768-3.322 2.732-5.625 2.732-3.429 0-6.215-2.41-6.911-6l-.054-.322h19.018c.054-.482.107-.964.107-1.339 0-6.857-5.196-12-12.107-12zm-6.803 9.75l.107-.375c.964-3.16 3.535-5.09 6.696-5.09 3.214 0 5.84 1.93 6.804 5.09l.107.375h-13.714zM122.893 2.357H146.036V6.268000000000001H122.893zM47.679 2.357H42.75V25.18c0 4.714 2.625 7.66 6.857 7.66 1.5 0 3.322-.214 3.964-.268V28.34c-.642.107-2.089.268-3.16.268-1.554 0-2.732-1.34-2.732-3V13.714h5.892V9.696H47.68V2.357zM154.286 2.357h-4.929V25.18c0 4.714 2.625 7.66 6.857 7.66 1.5 0 3.322-.214 3.965-.268V28.34c-.643.107-2.09.268-3.161.268-1.554 0-2.732-1.34-2.732-3V13.714h5.893V9.696h-5.893V2.357zM134.41 9.107c-6.856 0-12 5.143-12 12s5.144 12 12 12c4.5 0 7.18-3.16 7.18-3.16v2.517h4.928v-11.41c0-6.804-5.197-11.947-12.107-11.947zm0 19.66c-4.017 0-7.07-3.32-7.07-7.66 0-4.393 3.053-7.714 7.07-7.714 4.072 0 7.18 3.321 7.18 7.714 0 4.393-3.108 7.66-7.18 7.66zM106.393 20.946c0 5.25-3.054 7.768-6.054 7.768-4.5 0-5.143-3.696-5.143-7.66V9.696h-4.928v12.59c0 5.571 2.893 10.768 9.536 10.768 4.339 0 6.535-3.108 6.535-3.108v2.518h4.929V9.696h-4.929v11.25h.054z" transform="translate(68 9.143)"/>
        </g>
    </g>
</svg>
