<svg xmlns="http://www.w3.org/2000/svg" width="324" height="108.6" viewBox="0 0 324 108.6">
  <title>Rise Logo</title>
  <g>
    <path d="M108.3,161.7A54.3,54.3,0,1,0,162.6,216,54.286,54.286,0,0,0,108.3,161.7Zm0,92.1a37.7806,37.7806,0,0,1-35.7-25.3H144A37.8775,37.8775,0,0,1,108.3,253.8Z" transform="translate(-54 -161.7)" fill="#ff6602"/>
    <g>
      <rect x="205.5" y="40.6" width="11.2" height="51.4"/>
      <path d="M265.1,175.6a7.2105,7.2105,0,1,0,0,14.4,7.206,7.206,0,1,0,0-14.4Z" transform="translate(-54 -161.7)"/>
      <path d="M378,227.8c0-16.3-11.1-26.7-25.8-26.7s-26.4,10.4-26.4,26.7,11.8,27,26.4,27c9.7,0,19.3-4.2,23.8-13.2-3-1.3-6.4-2.8-9.3-4.1-2.6,4.7-8.3,7.4-14,7.4-8.3,0-14.7-5-15.8-12.9h40.9A28.8449,28.8449,0,0,0,378,227.8Zm-41-4.1c1.1-7.9,7.3-12.7,15.2-12.7,7.7,0,13.5,4.6,14.7,12.7Z" transform="translate(-54 -161.7)"/>
      <path d="M306.3,224.3l-7.9-2c-2.8-.8-5.6-2-6.3-4a5.327,5.327,0,0,1,.4-4.6c1.1-1.8,4.4-2.9,7.3-2.9,3.3,0,6.7,1.5,7.4,4.9H318c-1-10.6-9.7-14.6-18.7-14.6-9.5,0-17.7,5.9-18.4,13.5-.7,8.3,3.3,13.8,14.2,16.7L302,233c3.7.9,7.2,2.8,7.2,6.1,0,3.9-4,6.2-9.1,6.2-5.7,0-9.2-2.7-10-6.8H279.6c.6,10.4,10.3,16.3,19.7,16.3,11.8,0,20.5-5.6,20.5-15.5C319.8,234.1,317.5,227,306.3,224.3Z" transform="translate(-54 -161.7)"/>
      <path d="M228.9,228a17.7372,17.7372,0,0,0,4.1-1.2c10.1-4.3,13.7-15,13.7-23.6,0-11.5-6.3-24.9-23.9-24.9H194.1v75.4h11.6V228.6h10.7c3.6,16,16.2,25.2,33.5,25.2V242.4C237.5,242.3,231,236.6,228.9,228Zm-7-10.4H205.8V188.9h16.5c8.5,0,12.4,7.2,12.4,14.3a16.3084,16.3084,0,0,1-3,9.8C229.5,216.1,226.1,217.6,221.9,217.6Z" transform="translate(-54 -161.7)"/>
    </g>
  </g>
</svg>
