<?xml version="1.0" encoding="iso-8859-1"?>
<!-- Generator: Adobe Illustrator 19.0.0, SVG Export Plug-In . SVG Version: 6.00 Build 0)  -->
<!DOCTYPE svg PUBLIC "-//W3C//DTD SVG 1.1//EN" "http://www.w3.org/Graphics/SVG/1.1/DTD/svg11.dtd">
<svg version="1.1" id="cp_x5F_9_x5F_appicon.svg" xmlns="http://www.w3.org/2000/svg" xmlns:xlink="http://www.w3.org/1999/xlink"
	 x="0px" y="0px" viewBox="-653 202.5 611.5 596.5" style="enable-background:new -653 202.5 611.5 596.5;" xml:space="preserve">
<radialGradient id="SVGID_1_" cx="-1852.743" cy="1433.6819" r="0.7861" gradientTransform="matrix(555.9 0 0 -540.6 1029496.1875 775394.75)" gradientUnits="userSpaceOnUse">
	<stop  offset="0" style="stop-color:#2E4239;stop-opacity:0.98"/>
	<stop  offset="1" style="stop-color:#02190D"/>
</radialGradient>
<path style="fill:url(#SVGID_1_);" d="M-632.9,220.5H-59v560.6h-573.9V220.5L-632.9,220.5z"/>
<path style="fill:#00E778;" d="M-624.9,228H-69v543.1h-555.9V228L-624.9,228z M-653,799.2h612V202.5h-612V799.2z"/>
<path style="fill:#00E778;" d="M-362.6,615v-34.4c0-3.1-1.3-3.1-2.8-2c-12.2,4.1-23.5,5.4-40.3,5.4c-37,0-82.1-23.5-82.1-103
	c0-64.3,32.9-101.7,82.1-101.7c17.6,0,32.6,3.1,42.8,7.9c1.3,0.5,3.1,0.5,3.1-3.1v-36.3c0-2.5-0.5-3.8-2.6-4.6
	c-7.9-3.8-23.2-5.9-43.6-5.9c-78.3,0-129.5,58.1-129.5,144.6c0,101,58.1,143.8,123.7,143.8c18.1,0,35.7-1.8,46.7-6.4
	C-363.3,618.9-362.6,617.6-362.6,615L-362.6,615z M-280.7,454.9c6.9-2,13.3-3.3,22.2-3.3c31.9,0,50.5,22.4,50.5,64.3
	c0,51.3-29.8,71.7-58.4,71.7c-4.6,0-10.2-0.5-14-1.8L-280.7,454.9L-280.7,454.9z M-253.4,411.6c-29.8,0-55.3,8.9-72.2,14.3
	c-0.8,0.5-3.6,3.1-3.6,3.6c0.8,5.9,2.5,15.8,2.5,20.4V687c0,2,1.8,2.6,4.1,2.6l40-3.8c2-0.5,1.8-2.3,1.8-3.8v-55.8
	c3.8,0.5,8.7,0,12,0c54.1,0,107.1-37.5,107.1-113.5C-161.4,454.9-193.7,411.6-253.4,411.6L-253.4,411.6z"/>
</svg>
