<?xml version="1.0" encoding="UTF-8" standalone="no"?>
<!-- Created with Inkscape (http://www.inkscape.org/) -->

<svg
   xmlns:dc="http://purl.org/dc/elements/1.1/"
   xmlns:cc="http://creativecommons.org/ns#"
   xmlns:rdf="http://www.w3.org/1999/02/22-rdf-syntax-ns#"
   xmlns:svg="http://www.w3.org/2000/svg"
   xmlns="http://www.w3.org/2000/svg"
   xmlns:sodipodi="http://sodipodi.sourceforge.net/DTD/sodipodi-0.dtd"
   xmlns:inkscape="http://www.inkscape.org/namespaces/inkscape"
   width="506px"
   height="187px"
   viewBox="0 0 506 187"
   version="1.1"
   id="SVGRoot"
   inkscape:version="0.92.1 r15371"
   sodipodi:docname="Vyond.svg">
  <sodipodi:namedview
     id="base"
     pagecolor="#ffffff"
     bordercolor="#666666"
     borderopacity="1.0"
     inkscape:pageopacity="0.0"
     inkscape:pageshadow="2"
     inkscape:zoom="1"
     inkscape:cx="127.2177"
     inkscape:cy="70.587572"
     inkscape:document-units="px"
     inkscape:current-layer="layer1"
     showgrid="false"
     inkscape:window-width="1366"
     inkscape:window-height="705"
     inkscape:window-x="-8"
     inkscape:window-y="-8"
     inkscape:window-maximized="1"
     showguides="true"
     inkscape:guide-bbox="true" />
  <defs
     id="defs4485" />
  <metadata
     id="metadata4488">
    <rdf:RDF>
      <cc:Work
         rdf:about="">
        <dc:format>image/svg+xml</dc:format>
        <dc:type
           rdf:resource="http://purl.org/dc/dcmitype/StillImage" />
        <dc:title></dc:title>
      </cc:Work>
    </rdf:RDF>
  </metadata>
  <g
     id="layer1"
     inkscape:groupmode="layer"
     inkscape:label="Layer 1">
    <path
       style="fill:#d95e28;fill-opacity:1;stroke:none;stroke-width:0.24049184px;stroke-linecap:butt;stroke-linejoin:miter;stroke-opacity:1"
       d="M 0.17301741,0.07370604 33.350451,186.82648 h 29.08765 L 95.491504,0.07370604 H 67.396111 L 47.894506,130.5676 28.723347,0.07370604 Z M 419.08768,0.24010167 V 186.90945 h 45.28344 c 37.62616,-0.22193 40.71118,-30.57038 41.48244,-47.6034 V 47.260854 C 505.02722,21.350706 494.89072,1.4052293 463.6274,0.24010167 Z M 126.89271,24.707622 151.84845,105.26762 v 57.25774 h 19.33637 V 105.93321 L 195.878,24.707622 H 174.49017 L 161.59924,79.801248 148.37742,24.707622 Z m 180.8038,0 V 162.52536 h 19.9275 l 0.0145,-83.134684 27.32497,83.134684 h 19.83206 V 24.707622 H 354.96346 V 112.92428 L 326.68181,24.707622 Z m 139.81746,3.079064 h 10.90782 c 10.90772,0.665776 17.76615,7.906475 18.34459,19.973838 v 94.624606 c 0.11019,9.37648 -5.81206,17.17189 -14.04794,17.14412 H 447.51397 Z M 248.44983,38.917881 c -13.59578,0 -24.54103,11.023254 -24.54103,24.715936 v 60.024743 c 0,13.69269 10.94525,24.71593 24.54103,24.71593 13.5958,0 24.54107,-11.02324 24.54107,-24.71593 V 63.633817 c 0,-13.692682 -10.94527,-24.715936 -24.54107,-24.715936 z m 0.11655,16.477602 c 4.33771,0 7.82995,3.516647 7.82995,7.885269 v 60.730858 c 0,4.36863 -3.49224,7.88576 -7.82995,7.88576 -4.3377,0 -7.82947,-3.51713 -7.82947,-7.88576 V 63.280752 c 0,-4.368622 3.49177,-7.885269 7.82947,-7.885269 z"
       id="path5065"
       inkscape:connector-curvature="0" />
  </g>
</svg>
